<?xml version="1.0" standalone="no"?>
<!DOCTYPE svg PUBLIC "-//W3C//DTD SVG 20010904//EN"
 "http://www.w3.org/TR/2001/REC-SVG-20010904/DTD/svg10.dtd">
<svg version="1.0" xmlns="http://www.w3.org/2000/svg"
 width="1600.000000pt" height="533.000000pt" viewBox="0 0 1600.000000 533.000000"
 preserveAspectRatio="xMidYMid meet">
<metadata>
Created by potrace 1.16, written by Peter Selinger 2001-2019
</metadata>
<g transform="translate(0.000000,533.000000) scale(0.100000,-0.100000)"
fill="#000000" stroke="none">
<path d="M1167 3863 c-10 -9 -9 -1181 1 -1185 4 -2 80 -2 170 2 l163 5 3 407
c2 224 7 412 11 418 4 7 140 10 415 10 381 0 409 1 414 18 9 30 11 306 3 320
-6 9 -136 12 -591 12 -320 0 -586 -3 -589 -7z"/>
<path d="M5480 2636 c0 -641 3 -817 13 -823 23 -15 121 -13 144 3 l23 15 -2
735 -3 735 45 -3 45 -3 36 -75 c20 -41 49 -102 64 -135 15 -33 46 -100 70
-150 23 -49 50 -108 60 -130 10 -22 42 -90 71 -150 30 -61 54 -116 54 -123 0
-7 5 -12 10 -12 6 0 10 -6 10 -13 0 -7 8 -31 19 -53 10 -21 35 -75 56 -119 20
-44 54 -116 75 -160 21 -44 52 -111 70 -150 114 -248 82 -224 288 -219 91 2
170 8 175 13 9 9 10 1607 1 1622 -3 5 -41 9 -85 9 l-79 0 -2 -737 -3 -738 -38
-3 c-30 -3 -42 2 -57 20 -11 13 -19 28 -20 35 0 6 -9 28 -19 50 -20 39 -97
201 -146 308 -15 33 -51 110 -80 170 -29 61 -65 137 -80 170 -26 56 -43 94
-125 270 -18 39 -53 113 -77 165 -25 52 -57 122 -73 155 -15 33 -35 77 -45 98
l-17 37 -189 0 -189 0 0 -814z"/>
<path d="M13977 3443 c-10 -9 -9 -1623 1 -1623 4 0 6 364 4 810 l-2 810 34 0
c34 0 35 -1 39 -47 l3 -48 2 53 2 52 -38 0 c-21 0 -42 -3 -45 -7z"/>
<path d="M7570 2960 c-8 -5 -30 -10 -48 -10 -18 0 -41 -4 -52 -10 -11 -5 -29
-14 -40 -20 -11 -5 -27 -10 -35 -10 -8 0 -15 -4 -15 -10 0 -5 -9 -10 -20 -10
-11 0 -20 -4 -20 -8 0 -4 -13 -16 -29 -25 -59 -35 -171 -163 -171 -196 0 -6
-4 -11 -10 -11 -5 0 -10 -9 -10 -19 0 -11 -4 -23 -10 -26 -5 -3 -10 -15 -10
-26 0 -10 -4 -27 -9 -37 -20 -38 -33 -131 -27 -193 10 -104 18 -149 27 -155 5
-3 9 -14 9 -24 0 -59 147 -256 218 -293 23 -12 47 -24 134 -68 10 -5 31 -9 47
-9 17 0 33 -4 36 -10 8 -13 232 -13 240 0 3 6 19 10 36 10 16 0 37 4 47 9 9 5
40 19 67 32 28 13 56 29 63 36 7 7 25 20 40 29 60 36 155 175 181 264 7 25 18
57 23 71 10 27 5 218 -7 279 -9 48 -34 108 -76 180 -35 61 -204 210 -238 210
-6 0 -20 5 -31 10 -11 6 -29 15 -40 20 -11 6 -38 10 -59 10 -22 0 -43 5 -46
10 -8 13 -145 13 -165 0z m155 -170 c3 -5 19 -10 34 -10 75 0 205 -100 249
-192 49 -104 52 -115 52 -210 0 -98 -9 -137 -54 -238 -27 -62 -165 -170 -216
-170 -11 0 -22 -4 -25 -10 -3 -6 -52 -10 -110 -10 -58 0 -107 4 -110 10 -3 6
-14 10 -25 10 -33 0 -104 44 -157 98 -82 82 -116 171 -116 307 0 123 35 216
111 295 49 51 149 110 186 110 11 0 28 5 36 10 20 13 137 13 145 0z"/>
<path d="M8376 2922 c-5 -8 5 -62 24 -127 6 -22 14 -51 16 -65 3 -14 9 -34 14
-45 5 -11 11 -33 15 -50 3 -16 10 -46 15 -65 5 -19 12 -48 15 -65 4 -16 10
-39 15 -50 5 -11 11 -31 14 -45 3 -14 8 -38 11 -55 4 -16 10 -39 15 -50 5 -11
11 -31 14 -45 3 -14 8 -38 11 -55 4 -16 10 -39 15 -50 9 -21 18 -59 27 -113 3
-18 9 -35 14 -38 5 -3 9 -17 9 -31 0 -25 9 -58 32 -124 15 -42 43 -48 189 -43
192 7 196 8 202 47 6 36 20 92 37 152 7 22 14 55 17 73 3 18 9 35 14 38 5 3 9
18 9 35 0 16 4 37 9 47 5 9 14 37 21 62 6 25 16 59 21 76 5 17 9 40 9 52 0 11
4 23 9 26 5 3 11 20 14 38 3 18 11 53 17 78 6 25 14 60 17 78 3 18 9 35 14 38
5 3 9 18 9 34 0 16 5 32 10 35 6 3 10 21 10 40 0 19 5 37 10 40 6 3 10 19 10
35 0 16 4 31 8 34 5 3 9 19 10 36 l1 30 -88 0 -88 0 -12 -47 c-7 -27 -16 -62
-21 -79 -6 -17 -10 -40 -10 -52 0 -11 -4 -23 -9 -26 -5 -3 -11 -20 -14 -38 -3
-18 -10 -51 -16 -73 -5 -22 -13 -53 -16 -70 -4 -16 -10 -39 -15 -50 -5 -11
-11 -33 -15 -50 -3 -16 -10 -46 -15 -65 -5 -19 -12 -48 -15 -65 -4 -16 -10
-39 -15 -50 -5 -11 -11 -33 -15 -50 -3 -16 -10 -48 -16 -70 -6 -22 -13 -53
-16 -70 -3 -16 -9 -34 -13 -40 -4 -5 -10 -22 -14 -37 -6 -25 -11 -28 -50 -28
-46 0 -58 12 -71 75 -3 17 -10 46 -15 65 -5 19 -12 49 -15 65 -4 17 -10 39
-15 50 -5 11 -11 34 -15 50 -3 17 -11 48 -16 70 -6 22 -13 55 -16 73 -3 18 -9
35 -14 38 -5 3 -9 20 -9 39 0 19 -4 36 -9 39 -5 3 -11 20 -14 38 -3 18 -11 53
-17 78 -6 25 -14 60 -17 78 -3 18 -9 35 -14 38 -5 3 -9 18 -9 33 0 16 -7 45
-15 65 -8 20 -12 36 -9 36 4 0 1 7 -6 15 -9 11 -33 15 -91 15 -43 0 -80 -3
-83 -8z"/>
<path d="M9504 2917 c-7 -20 2 -726 11 -772 4 -22 11 -44 14 -50 4 -5 13 -29
20 -52 8 -22 30 -63 50 -89 39 -51 145 -133 173 -134 9 0 20 -4 23 -10 3 -5
21 -10 39 -10 17 0 37 -5 43 -11 11 -11 215 -7 268 5 49 12 123 45 143 63 7 7
25 20 40 29 31 19 77 80 108 144 48 100 49 114 49 515 l0 380 -90 0 -90 0 -5
-380 c-3 -209 -9 -389 -13 -400 -25 -59 -34 -73 -66 -108 -33 -36 -49 -45
-124 -76 -34 -14 -184 -15 -192 -1 -3 6 -15 10 -26 10 -31 0 -98 50 -128 94
-57 86 -55 73 -58 471 -2 204 -5 376 -8 383 -6 18 -174 17 -181 -1z"/>
<path d="M10935 2920 c-3 -5 -15 -10 -26 -10 -36 0 -104 -48 -149 -106 -37
-48 -45 -77 -44 -168 1 -76 5 -97 25 -131 26 -45 78 -97 112 -112 80 -37 96
-39 297 -49 157 -7 193 -22 238 -101 18 -34 15 -118 -7 -162 -21 -40 -76 -82
-126 -96 -16 -5 -142 -10 -280 -12 -181 -3 -251 -7 -257 -16 -4 -7 -8 -36 -8
-66 0 -84 8 -89 148 -85 361 10 457 15 466 24 6 6 20 10 33 10 13 0 23 5 23
10 0 6 7 10 15 10 32 0 119 86 145 144 51 113 50 215 -3 324 -30 62 -113 141
-149 142 -9 0 -20 5 -23 10 -3 6 -17 10 -30 10 -13 0 -27 5 -30 10 -4 6 -68
10 -160 10 -92 0 -156 4 -160 10 -3 6 -15 10 -25 10 -29 0 -80 69 -80 107 0
62 53 123 107 123 17 0 35 5 38 10 4 6 98 10 251 10 l244 0 0 75 0 75 -289 0
c-183 0 -292 -4 -296 -10z"/>
<path d="M3368 2653 l-148 -4 0 -403 c0 -223 -3 -411 -6 -420 -5 -14 -52 -16
-419 -16 -266 0 -416 -4 -420 -10 -9 -14 -10 -314 -1 -328 5 -9 159 -12 597
-12 l589 0 0 594 c0 532 -2 594 -16 600 -9 3 -19 5 -22 4 -4 -1 -73 -4 -154
-5z"/>
</g>
</svg>
